<svg xmlns="http://www.w3.org/2000/svg" viewBox="0 0 174 174"><defs><style>.cls-1{fill:#fff;}.cls-2{fill:#1b7e82;}</style></defs><title>資產 1</title><g id="圖層_2" data-name="圖層 2"><g id="圖層_1-2" data-name="圖層 1"><path class="cls-1" d="M173.92,87.5c0,27.64-.06,55.29.08,82.94,0,3-.6,3.57-3.56,3.56Q87,173.83,3.56,174c-3,0-3.57-.6-3.56-3.56Q.17,87,0,3.56C0,.6.6,0,3.56,0Q87,.17,170.44,0c3,0,3.57.59,3.56,3.56C173.86,31.54,173.92,59.52,173.92,87.5Z"/><path class="cls-2" d="M87.91,65.64c-8.93,0-17.87,0-26.8,0-2.87,0-5.6-.33-5.63-3.95s2.64-4,5.54-4q27.06,0,54.1,0c3,0,5.51.61,5.39,4.19-.11,3.27-2.56,3.8-5.3,3.79C106.11,65.62,97,65.64,87.91,65.64Z"/><path class="cls-2" d="M87.49,91.47c-8.77,0-17.54,0-26.3,0-2.85,0-5.62-.24-5.71-3.86s2.53-4.11,5.46-4.11q27.06,0,54.11,0c2.93,0,5.55.52,5.46,4.11s-2.88,3.87-5.72,3.86C105.69,91.45,96.59,91.47,87.49,91.47Z"/><path class="cls-2" d="M88,109.35c8.93,0,17.87,0,26.8,0,2.85,0,5.62.24,5.71,3.87s-2.55,4.1-5.47,4.1q-27.06,0-54.11,0c-2.93,0-5.55-.52-5.45-4.12s2.88-3.86,5.72-3.85C70.13,109.37,79.07,109.35,88,109.35Z"/></g></g></svg>